<?xml version="1.0" encoding="iso-8859-1"?>
<!-- Generator: Adobe Illustrator 19.2.0, SVG Export Plug-In . SVG Version: 6.00 Build 0)  -->
<svg version="1.1" id="Livello_1" xmlns="http://www.w3.org/2000/svg" xmlns:xlink="http://www.w3.org/1999/xlink" x="0px" y="0px"
	 viewBox="0 0 1024 768" style="enable-background:new 0 0 1024 768;" xml:space="preserve">
<g>
	<circle style="fill:#FFFFFF;" cx="512" cy="384" r="169.125"/>
	<circle style="fill:#2C3E51;" cx="512" cy="384" r="156.342"/>
	<path style="fill:#FFFFFF;" d="M537.488,453.389c-46.802,0-84.742-37.94-84.742-84.742c0-23.7,9.74-45.117,25.423-60.496
		c-32.521,11.842-55.746,43.031-55.746,79.648c0,46.802,37.94,84.742,84.742,84.742c23.101,0,44.033-9.255,59.319-24.246
		C557.437,451.589,547.673,453.389,537.488,453.389z"/>
	<path style="fill:#FFFFFF;" d="M543.109,320.714l21.652-7.318l2.897,8.843l-21.499,7.318l13.57,18.144l-7.471,5.794l-13.722-18.755
		l-13.266,18.755l-7.623-5.794l13.265-18.144l-21.499-7.318l2.897-8.843l21.652,7.318v-22.718h9.148V320.714z"/>
	<path style="fill:#FFFFFF;" d="M563.148,531.395c-2.374-6.967-5.471-13.58-9.592-19.708c-1.601-2.38-3.383-4.609-5.182-6.828
		c-0.816-1.005-0.952-2.143-0.573-3.17c0.288-0.78-0.199-2.12,1.326-2.337c0.422-0.06,1.288-2.345-0.609-2.437
		c-0.848-0.041-0.976-0.726-0.961-1.427c0.038-1.847-0.138-10.24-0.123-12.198c0.001-0.198-0.002-0.44,0.222-0.512
		c1.21-0.391,0.444-0.87,0.068-1.331c-0.251-0.307-3.021-2.417-3.451-3.817c-0.388-1.515-0.794-3.026-1.154-4.547
		c-0.118-0.496-0.173-0.975,0.345-1.411c0.542-0.457,0.448-1.231-0.026-1.59c-1.048-0.794-1.216-1.832-1.243-3.007
		c-0.038-1.65-0.098-3.257,0.971-4.714c0.536-0.731,0.129-1.422-0.798-1.505c-0.984-0.088-1.679-0.168-1.035-1.453
		c0.316-0.63-0.706-1.153-0.446-1.899c0.051-0.146,0.029-0.318,0.041-0.478c-0.084-1.505-0.616-3.141,1.189-4.098
		c0.126-0.81,0.754-1.789-0.72-2.049c-0.222-0.039-0.897-21.492-1.169-27.815c-0.024-0.565-0.054-1.136,0.356-1.609
		c0.131-0.15,0.316-0.387,0.087-0.501c-0.908-0.45-0.41-1.281-0.589-1.926c-0.376-1.361-0.742-14.192-1.053-15.553
		c-0.085,1.597-0.851,16.52-1.582,17.254c-0.868,0.872,0.339,1.514,0.21,2.415c-0.352,2.465-1.046,27.114-1.661,27.556
		c-0.921,0.661-0.615,1.356-0.556,2.116c1.201,0.99,1.362,2.277,1.059,3.697c-0.142,0.823,0.427,1.776-0.479,2.466
		c-0.246,0.188,0.049,0.335,0.152,0.462c0.755,0.935,0.28,1.184-0.659,1.347c-1.711,0.297-1.713,0.356-0.792,1.903
		c0.979,1.644,0.594,5.656-0.638,7.243c-0.411,0.529-0.549,1.232-0.013,1.756c0.398,0.389,0.401,0.735,0.256,1.181
		c-0.595,1.833-1.189,3.667-1.783,5.501c-0.569,1.389-1.725,2.181-2.949,2.905c-0.5,0.47-0.665,0.829-0.257,1.604
		c0.46,0.875,1.234,1.8,0.823,2.969c-0.06,1.326-0.254,8.218-0.249,10.079c0.002,0.671-0.23,0.566-1.081,0.713
		c-0.666,0.115-1.421,0.859-1.416,1.448c0.007,0.844,0.195,1.046,1.406,1.576c0.766,0.336,0.408,1.521,0.519,2.314
		c0.24,1.719-0.413,3.134-1.495,4.524c-4.105,5.277-8.021,10.7-11.231,16.581c-2.877,5.271-4.485,10.983-5.436,16.88
		c-0.175,1.082-0.459,1.504-1.635,1.477c-1.129-0.026-2.334-0.445-3.434,0.489c-0.482,0.409-0.868-0.242-0.825-0.786
		c0.038-0.478-0.284-0.803-0.284-1.005v12.828c2.324,0.095,4.656,0.156,7.003,0.156c19.072,0,37.405-3.16,54.509-8.98
		c-0.082-0.186-0.079-0.434-0.112-0.636C565.741,539.354,564.498,535.358,563.148,531.395z"/>
</g>
</svg>
