<?xml version="1.0" encoding="iso-8859-1"?>
<!-- Generator: Adobe Illustrator 19.2.0, SVG Export Plug-In . SVG Version: 6.00 Build 0)  -->
<svg version="1.1" id="Livello_1" xmlns="http://www.w3.org/2000/svg" xmlns:xlink="http://www.w3.org/1999/xlink" x="0px" y="0px"
	 viewBox="0 0 1024 768" style="enable-background:new 0 0 1024 768;" xml:space="preserve">
<g>
	<g>
		<rect x="227.39" y="170.776" style="fill:#FFFFFF;" width="569.219" height="213.143"/>
		<g>
			<g>
				<path style="fill:#2C3E51;" d="M303.821,264.799h-15.426v41.531h-5.538v-41.531h-15.426v-5.142h36.389V264.799z"/>
				<path style="fill:#2C3E51;" d="M300.327,290.904c0-2.417,0.417-4.614,1.252-6.592c0.834-1.977,1.978-3.68,3.428-5.109
					c1.451-1.427,3.186-2.538,5.208-3.329c2.021-0.79,4.219-1.186,6.592-1.186s4.57,0.396,6.592,1.186
					c2.021,0.791,3.758,1.902,5.208,3.329c1.45,1.429,2.592,3.132,3.428,5.109c0.834,1.978,1.252,4.176,1.252,6.592
					c0,2.418-0.418,4.614-1.252,6.592c-0.836,1.977-1.978,3.681-3.428,5.109c-1.45,1.428-3.187,2.538-5.208,3.329
					c-2.022,0.79-4.219,1.186-6.592,1.186s-4.571-0.396-6.592-1.186c-2.022-0.791-3.757-1.901-5.208-3.329
					c-1.45-1.428-2.594-3.132-3.428-5.109C300.744,295.519,300.327,293.322,300.327,290.904z M305.864,290.904
					c0,1.627,0.253,3.132,0.758,4.516c0.505,1.385,1.241,2.594,2.208,3.626c0.966,1.033,2.119,1.846,3.461,2.439
					c1.34,0.593,2.845,0.89,4.516,0.89c1.67,0,3.175-0.296,4.516-0.89c1.34-0.593,2.494-1.406,3.461-2.439
					c0.966-1.032,1.703-2.241,2.208-3.626c0.505-1.384,0.758-2.889,0.758-4.516c0-1.625-0.253-3.132-0.758-4.516
					c-0.506-1.385-1.242-2.592-2.208-3.626c-0.968-1.033-2.121-1.846-3.461-2.439c-1.341-0.593-2.846-0.89-4.516-0.89
					c-1.67,0-3.175,0.296-4.516,0.89c-1.341,0.593-2.495,1.407-3.461,2.439c-0.968,1.033-1.704,2.241-2.208,3.626
					C306.117,287.773,305.864,289.279,305.864,290.904z"/>
				<path style="fill:#2C3E51;" d="M341.263,282.796c0-1.406-0.044-2.725-0.132-3.955c-0.089-1.23-0.132-2.35-0.132-3.362h4.879
					c0,0.836,0.022,1.67,0.065,2.505c0.043,0.836,0.066,1.693,0.066,2.571h0.132c0.351-0.747,0.845-1.472,1.483-2.176
					c0.636-0.703,1.394-1.329,2.274-1.879c0.879-0.549,1.867-0.989,2.967-1.318c1.098-0.33,2.284-0.495,3.56-0.495
					c0.351,0,0.703,0.023,1.055,0.066c0.351,0.044,0.703,0.132,1.055,0.264l-0.329,5.208c-0.88-0.264-1.803-0.396-2.769-0.396
					c-3.164,0-5.461,1.022-6.889,3.065c-1.428,2.043-2.142,4.845-2.142,8.405v15.03h-5.142V282.796z"/>
				<path style="fill:#2C3E51;" d="M363.743,263.415c0-1.01,0.363-1.889,1.088-2.637c0.726-0.747,1.615-1.12,2.67-1.12
					c1.055,0,1.945,0.374,2.67,1.12c0.725,0.748,1.088,1.627,1.088,2.637c0,1.099-0.352,2-1.055,2.703
					c-0.703,0.703-1.604,1.055-2.702,1.055c-1.099,0-2-0.351-2.703-1.055C364.094,265.415,363.743,264.514,363.743,263.415z
					 M364.93,275.479h5.142v30.851h-5.142V275.479z"/>
				<path style="fill:#2C3E51;" d="M380.288,282.796c0-1.406-0.044-2.725-0.132-3.955c-0.089-1.23-0.132-2.35-0.132-3.362h4.879
					c0,0.836,0.022,1.67,0.065,2.505c0.043,0.836,0.066,1.693,0.066,2.571h0.132c0.351-0.747,0.845-1.472,1.483-2.176
					c0.636-0.703,1.394-1.329,2.274-1.879c0.879-0.549,1.867-0.989,2.967-1.318c1.098-0.33,2.284-0.495,3.56-0.495
					c2.021,0,3.768,0.308,5.241,0.923c1.472,0.616,2.691,1.473,3.658,2.571c0.966,1.099,1.681,2.429,2.143,3.988
					c0.461,1.561,0.692,3.263,0.692,5.109v19.051h-5.142v-18.524c0-2.592-0.572-4.636-1.714-6.131
					c-1.144-1.493-2.923-2.241-5.34-2.241c-1.67,0-3.109,0.286-4.318,0.857c-1.209,0.571-2.198,1.384-2.967,2.439
					c-0.769,1.055-1.341,2.307-1.714,3.758c-0.374,1.45-0.56,3.055-0.56,4.812v15.03h-5.142V282.796z"/>
				<path style="fill:#2C3E51;" d="M415.161,290.904c0-2.417,0.417-4.614,1.252-6.592c0.834-1.977,1.978-3.68,3.428-5.109
					c1.451-1.427,3.186-2.538,5.208-3.329c2.021-0.79,4.219-1.186,6.592-1.186s4.57,0.396,6.592,1.186
					c2.021,0.791,3.758,1.902,5.208,3.329c1.45,1.429,2.592,3.132,3.428,5.109c0.834,1.978,1.252,4.176,1.252,6.592
					c0,2.418-0.418,4.614-1.252,6.592c-0.836,1.977-1.978,3.681-3.428,5.109c-1.45,1.428-3.187,2.538-5.208,3.329
					c-2.022,0.79-4.219,1.186-6.592,1.186s-4.571-0.396-6.592-1.186c-2.022-0.791-3.757-1.901-5.208-3.329
					c-1.45-1.428-2.594-3.132-3.428-5.109C415.578,295.519,415.161,293.322,415.161,290.904z M420.698,290.904
					c0,1.627,0.253,3.132,0.758,4.516c0.505,1.385,1.241,2.594,2.208,3.626c0.966,1.033,2.119,1.846,3.461,2.439
					c1.34,0.593,2.845,0.89,4.516,0.89c1.67,0,3.175-0.296,4.516-0.89c1.34-0.593,2.494-1.406,3.461-2.439
					c0.966-1.032,1.703-2.241,2.208-3.626c0.505-1.384,0.758-2.889,0.758-4.516c0-1.625-0.253-3.132-0.758-4.516
					c-0.506-1.385-1.242-2.592-2.208-3.626c-0.968-1.033-2.121-1.846-3.461-2.439c-1.341-0.593-2.846-0.89-4.516-0.89
					c-1.67,0-3.175,0.296-4.516,0.89c-1.341,0.593-2.495,1.407-3.461,2.439c-0.968,1.033-1.704,2.241-2.208,3.626
					C420.951,287.773,420.698,289.279,420.698,290.904z"/>
				<path style="fill:#2C3E51;" d="M474.424,256.493h5.142v23.27h0.132c0.351-0.615,0.834-1.22,1.451-1.813
					c0.615-0.593,1.351-1.131,2.208-1.615c0.857-0.483,1.812-0.879,2.867-1.187c1.055-0.307,2.176-0.461,3.362-0.461
					c2.021,0,3.768,0.308,5.241,0.923c1.472,0.616,2.691,1.473,3.658,2.571c0.966,1.099,1.681,2.429,2.143,3.988
					c0.461,1.561,0.692,3.263,0.692,5.109v19.051h-5.142v-18.524c0-2.592-0.572-4.636-1.714-6.131
					c-1.144-1.493-2.923-2.241-5.34-2.241c-1.67,0-3.109,0.286-4.318,0.857c-1.209,0.571-2.198,1.384-2.967,2.439
					c-0.769,1.055-1.341,2.307-1.714,3.758c-0.374,1.45-0.56,3.055-0.56,4.812v15.03h-5.142V256.493z"/>
				<path style="fill:#2C3E51;" d="M510.681,279.434c1.582-1.625,3.461-2.823,5.636-3.593c2.175-0.768,4.384-1.154,6.625-1.154
					c4.57,0,7.866,1.078,9.888,3.23c2.021,2.153,3.033,5.428,3.033,9.822v13.25c0,0.88,0.043,1.791,0.132,2.736
					c0.088,0.946,0.198,1.813,0.33,2.604h-4.944c-0.177-0.702-0.275-1.483-0.297-2.341c-0.022-0.857-0.033-1.615-0.033-2.274h-0.132
					c-1.011,1.582-2.363,2.879-4.054,3.889c-1.692,1.01-3.724,1.516-6.098,1.516c-1.582,0-3.065-0.198-4.449-0.593
					c-1.385-0.395-2.594-0.978-3.626-1.747c-1.033-0.768-1.858-1.724-2.472-2.867c-0.616-1.142-0.923-2.461-0.923-3.955
					c0-2.548,0.66-4.549,1.978-5.999s2.955-2.526,4.911-3.23c1.955-0.702,4.065-1.142,6.329-1.318
					c2.263-0.175,4.339-0.264,6.23-0.264h1.977v-0.923c0-2.242-0.671-3.933-2.011-5.076c-1.341-1.142-3.22-1.714-5.636-1.714
					c-1.67,0-3.307,0.275-4.911,0.824c-1.605,0.55-3.022,1.396-4.252,2.538L510.681,279.434z M525.58,291.498
					c-3.296,0-5.911,0.461-7.845,1.384c-1.935,0.923-2.901,2.439-2.901,4.549c0,1.934,0.648,3.308,1.945,4.12
					c1.296,0.814,2.911,1.22,4.845,1.22c1.493,0,2.802-0.253,3.922-0.758c1.121-0.505,2.054-1.175,2.802-2.011
					c0.747-0.834,1.318-1.812,1.714-2.933c0.395-1.121,0.615-2.318,0.659-3.593v-1.977H525.58z"/>
				<path style="fill:#2C3E51;" d="M577.064,256.493h5.142v32.565l14.041-13.58h7.317l-14.898,14.041l16.414,16.81H597.5
					l-15.294-16.217v16.217h-5.142V256.493z"/>
				<path style="fill:#2C3E51;" d="M610.025,282.796c0-1.406-0.044-2.725-0.132-3.955c-0.089-1.23-0.132-2.35-0.132-3.362h4.879
					c0,0.836,0.022,1.67,0.065,2.505c0.043,0.836,0.066,1.693,0.066,2.571h0.132c0.351-0.747,0.845-1.472,1.483-2.176
					c0.636-0.703,1.394-1.329,2.274-1.879c0.879-0.549,1.867-0.989,2.967-1.318c1.098-0.33,2.284-0.495,3.56-0.495
					c2.021,0,3.768,0.308,5.241,0.923c1.472,0.616,2.691,1.473,3.658,2.571c0.966,1.099,1.681,2.429,2.143,3.988
					c0.461,1.561,0.692,3.263,0.692,5.109v19.051h-5.142v-18.524c0-2.592-0.572-4.636-1.714-6.131
					c-1.144-1.493-2.923-2.241-5.34-2.241c-1.67,0-3.109,0.286-4.318,0.857c-1.209,0.571-2.198,1.384-2.967,2.439
					c-0.769,1.055-1.341,2.307-1.714,3.758c-0.374,1.45-0.56,3.055-0.56,4.812v15.03h-5.142V282.796z"/>
				<path style="fill:#2C3E51;" d="M645.952,263.415c0-1.01,0.363-1.889,1.088-2.637c0.726-0.747,1.615-1.12,2.67-1.12
					c1.055,0,1.945,0.374,2.67,1.12c0.725,0.748,1.088,1.627,1.088,2.637c0,1.099-0.352,2-1.055,2.703
					c-0.703,0.703-1.604,1.055-2.702,1.055c-1.099,0-2-0.351-2.703-1.055C646.303,265.415,645.952,264.514,645.952,263.415z
					 M647.139,275.479h5.142v30.851h-5.142V275.479z"/>
				<path style="fill:#2C3E51;" d="M693.284,304.945c0,5.625-1.44,9.899-4.318,12.822c-2.879,2.922-7.044,4.383-12.492,4.383
					c-3.033,0-5.768-0.44-8.207-1.318c-2.439-0.88-4.758-2.396-6.955-4.549l3.692-4.219c1.625,1.757,3.351,3.087,5.174,3.988
					c1.824,0.9,3.923,1.352,6.296,1.352c2.284,0,4.186-0.341,5.702-1.022c1.516-0.682,2.713-1.605,3.592-2.768
					c0.879-1.165,1.494-2.495,1.846-3.989c0.351-1.494,0.527-3.055,0.527-4.68v-3.955h-0.132c-1.231,1.978-2.835,3.428-4.812,4.351
					c-1.977,0.923-3.999,1.384-6.065,1.384c-2.417,0-4.637-0.395-6.658-1.186c-2.022-0.791-3.758-1.889-5.208-3.296
					c-1.451-1.406-2.571-3.076-3.362-5.01c-0.791-1.934-1.187-4.043-1.187-6.329c0-2.505,0.396-4.768,1.187-6.79
					c0.791-2.021,1.9-3.724,3.329-5.109c1.428-1.385,3.153-2.449,5.175-3.197c2.021-0.747,4.262-1.121,6.724-1.121
					c1.055,0,2.11,0.122,3.164,0.362c1.055,0.242,2.077,0.616,3.065,1.121c0.989,0.506,1.879,1.143,2.67,1.912
					c0.791,0.769,1.451,1.659,1.978,2.67h0.132v-5.274h5.142V304.945z M666.256,290.904c0,1.582,0.285,3.044,0.857,4.384
					c0.571,1.341,1.351,2.505,2.34,3.493c0.989,0.989,2.143,1.77,3.461,2.34c1.318,0.572,2.725,0.857,4.219,0.857
					c1.758,0,3.318-0.307,4.68-0.923c1.362-0.615,2.515-1.439,3.461-2.472c0.944-1.032,1.658-2.219,2.142-3.56
					c0.483-1.34,0.725-2.757,0.725-4.252c0-1.67-0.264-3.198-0.791-4.582c-0.527-1.385-1.275-2.581-2.241-3.593
					c-0.967-1.01-2.132-1.79-3.494-2.341c-1.362-0.549-2.857-0.824-4.483-0.824c-1.626,0-3.109,0.296-4.449,0.89
					c-1.341,0.593-2.484,1.407-3.428,2.439c-0.945,1.033-1.681,2.241-2.208,3.626C666.519,287.773,666.256,289.279,666.256,290.904z
					"/>
				<path style="fill:#2C3E51;" d="M702.776,256.493h5.142v23.27h0.132c0.351-0.615,0.834-1.22,1.451-1.813
					c0.615-0.593,1.351-1.131,2.208-1.615c0.857-0.483,1.812-0.879,2.867-1.187c1.055-0.307,2.176-0.461,3.362-0.461
					c2.021,0,3.768,0.308,5.241,0.923c1.472,0.616,2.691,1.473,3.658,2.571c0.966,1.099,1.681,2.429,2.143,3.988
					c0.461,1.561,0.692,3.263,0.692,5.109v19.051h-5.142v-18.524c0-2.592-0.572-4.636-1.714-6.131
					c-1.144-1.493-2.923-2.241-5.34-2.241c-1.67,0-3.109,0.286-4.318,0.857c-1.209,0.571-2.198,1.384-2.967,2.439
					c-0.769,1.055-1.341,2.307-1.714,3.758c-0.374,1.45-0.56,3.055-0.56,4.812v15.03h-5.142V256.493z"/>
				<path style="fill:#2C3E51;" d="M756.304,279.829h-9.097v15.426c0,1.012,0.022,1.945,0.065,2.802
					c0.043,0.857,0.22,1.605,0.527,2.242c0.307,0.637,0.769,1.143,1.385,1.516c0.615,0.374,1.493,0.56,2.637,0.56
					c0.747,0,1.516-0.088,2.307-0.264c0.791-0.175,1.538-0.439,2.242-0.791l0.198,4.68c-0.88,0.396-1.858,0.681-2.934,0.857
					c-1.077,0.175-2.099,0.264-3.065,0.264c-1.846,0-3.319-0.242-4.417-0.725c-1.099-0.483-1.956-1.164-2.571-2.043
					c-0.616-0.879-1.021-1.966-1.219-3.263c-0.198-1.296-0.297-2.736-0.297-4.318v-16.942h-6.724v-4.351h6.724v-8.767h5.142v8.767
					h9.097V279.829z"/>
			</g>
			<path style="fill:#2C3E51;" d="M566.222,303.176c-9.824,0-17.789-7.964-17.789-17.789c0-4.975,2.045-9.471,5.337-12.699
				c-6.827,2.486-11.702,9.033-11.702,16.719c0,9.824,7.964,17.789,17.789,17.789c4.849,0,9.243-1.943,12.452-5.09
				C570.409,302.798,568.36,303.176,566.222,303.176z"/>
			<path style="fill:#2C3E51;" d="M565.606,274.727l4.545-1.536l0.608,1.856l-4.513,1.536l2.849,3.809l-1.568,1.216l-2.881-3.937
				l-2.785,3.937l-1.6-1.216l2.785-3.809l-4.513-1.536l0.608-1.856l4.545,1.536v-4.769h1.92V274.727z"/>
		</g>
	</g>
	<g>
		<rect x="227.39" y="384.081" style="fill:#2C3E51;" width="569.219" height="213.143"/>
		<g>
			<g>
				<path style="fill:#FFFFFF;" d="M301.957,486.799h-15.426v41.531h-5.538v-41.531h-15.426v-5.142h36.389V486.799z"/>
				<path style="fill:#FFFFFF;" d="M298.463,512.904c0-2.417,0.417-4.614,1.252-6.592c0.834-1.977,1.978-3.68,3.428-5.109
					c1.451-1.427,3.186-2.538,5.208-3.329c2.021-0.79,4.219-1.186,6.592-1.186s4.57,0.396,6.592,1.186
					c2.021,0.791,3.758,1.902,5.208,3.329c1.45,1.429,2.592,3.132,3.428,5.109c0.834,1.978,1.252,4.176,1.252,6.592
					c0,2.418-0.418,4.614-1.252,6.592c-0.836,1.977-1.978,3.681-3.428,5.109c-1.45,1.428-3.187,2.538-5.208,3.329
					c-2.022,0.79-4.219,1.186-6.592,1.186s-4.571-0.396-6.592-1.186c-2.022-0.791-3.757-1.901-5.208-3.329
					c-1.45-1.428-2.594-3.132-3.428-5.109C298.881,517.519,298.463,515.322,298.463,512.904z M304.001,512.904
					c0,1.627,0.253,3.132,0.758,4.516c0.505,1.385,1.241,2.594,2.208,3.626c0.966,1.033,2.119,1.846,3.461,2.439
					c1.34,0.593,2.845,0.89,4.516,0.89c1.67,0,3.175-0.296,4.516-0.89c1.34-0.593,2.494-1.406,3.461-2.439
					c0.966-1.032,1.703-2.241,2.208-3.626c0.505-1.384,0.758-2.889,0.758-4.516c0-1.625-0.253-3.132-0.758-4.516
					c-0.506-1.385-1.242-2.592-2.208-3.626c-0.968-1.033-2.121-1.846-3.461-2.439c-1.341-0.593-2.846-0.89-4.516-0.89
					c-1.67,0-3.175,0.296-4.516,0.89c-1.341,0.593-2.495,1.407-3.461,2.439c-0.968,1.033-1.704,2.241-2.208,3.626
					C304.254,509.773,304.001,511.279,304.001,512.904z"/>
				<path style="fill:#FFFFFF;" d="M339.4,504.796c0-1.406-0.044-2.725-0.132-3.955c-0.089-1.23-0.132-2.35-0.132-3.362h4.879
					c0,0.836,0.022,1.67,0.065,2.505c0.043,0.836,0.066,1.693,0.066,2.571h0.132c0.351-0.747,0.845-1.472,1.483-2.176
					c0.636-0.703,1.394-1.329,2.274-1.879c0.879-0.549,1.867-0.989,2.967-1.318c1.098-0.33,2.284-0.495,3.56-0.495
					c0.351,0,0.703,0.023,1.055,0.066c0.351,0.044,0.703,0.132,1.055,0.264l-0.329,5.208c-0.88-0.264-1.803-0.396-2.769-0.396
					c-3.164,0-5.461,1.022-6.889,3.065c-1.428,2.043-2.142,4.845-2.142,8.405v15.03H339.4V504.796z"/>
				<path style="fill:#FFFFFF;" d="M361.879,485.415c0-1.01,0.362-1.889,1.087-2.637c0.726-0.747,1.616-1.12,2.67-1.12
					c1.055,0,1.945,0.374,2.67,1.12c0.725,0.748,1.087,1.627,1.087,2.637c0,1.099-0.352,2-1.055,2.703
					c-0.703,0.703-1.604,1.055-2.702,1.055c-1.099,0-2-0.351-2.703-1.055C362.231,487.415,361.879,486.514,361.879,485.415z
					 M363.066,497.479h5.142v30.851h-5.142V497.479z"/>
				<path style="fill:#FFFFFF;" d="M378.425,504.796c0-1.406-0.044-2.725-0.132-3.955c-0.089-1.23-0.132-2.35-0.132-3.362h4.879
					c0,0.836,0.022,1.67,0.065,2.505c0.043,0.836,0.066,1.693,0.066,2.571h0.132c0.351-0.747,0.845-1.472,1.483-2.176
					c0.636-0.703,1.394-1.329,2.274-1.879c0.879-0.549,1.867-0.989,2.967-1.318c1.098-0.33,2.284-0.495,3.56-0.495
					c2.021,0,3.768,0.308,5.241,0.923c1.472,0.616,2.691,1.473,3.658,2.571c0.966,1.099,1.681,2.429,2.143,3.988
					c0.461,1.561,0.692,3.263,0.692,5.109v19.051h-5.142v-18.524c0-2.592-0.572-4.636-1.714-6.131
					c-1.144-1.493-2.923-2.241-5.34-2.241c-1.67,0-3.109,0.286-4.318,0.857c-1.209,0.571-2.198,1.384-2.967,2.439
					c-0.769,1.055-1.341,2.307-1.714,3.758c-0.374,1.45-0.56,3.055-0.56,4.812v15.03h-5.142V504.796z"/>
				<path style="fill:#FFFFFF;" d="M413.298,512.904c0-2.417,0.417-4.614,1.252-6.592c0.834-1.977,1.978-3.68,3.428-5.109
					c1.451-1.427,3.186-2.538,5.208-3.329c2.021-0.79,4.219-1.186,6.592-1.186s4.57,0.396,6.592,1.186
					c2.021,0.791,3.758,1.902,5.208,3.329c1.45,1.429,2.592,3.132,3.428,5.109c0.834,1.978,1.252,4.176,1.252,6.592
					c0,2.418-0.418,4.614-1.252,6.592c-0.836,1.977-1.978,3.681-3.428,5.109c-1.45,1.428-3.187,2.538-5.208,3.329
					c-2.022,0.79-4.219,1.186-6.592,1.186s-4.571-0.396-6.592-1.186c-2.022-0.791-3.757-1.901-5.208-3.329
					c-1.45-1.428-2.594-3.132-3.428-5.109C413.715,517.519,413.298,515.322,413.298,512.904z M418.835,512.904
					c0,1.627,0.253,3.132,0.758,4.516c0.505,1.385,1.241,2.594,2.208,3.626c0.966,1.033,2.119,1.846,3.461,2.439
					c1.34,0.593,2.845,0.89,4.516,0.89c1.67,0,3.175-0.296,4.516-0.89c1.34-0.593,2.494-1.406,3.461-2.439
					c0.966-1.032,1.703-2.241,2.208-3.626c0.505-1.384,0.758-2.889,0.758-4.516c0-1.625-0.253-3.132-0.758-4.516
					c-0.506-1.385-1.242-2.592-2.208-3.626c-0.968-1.033-2.121-1.846-3.461-2.439c-1.341-0.593-2.846-0.89-4.516-0.89
					c-1.67,0-3.175,0.296-4.516,0.89c-1.341,0.593-2.495,1.407-3.461,2.439c-0.968,1.033-1.704,2.241-2.208,3.626
					C419.088,509.773,418.835,511.279,418.835,512.904z"/>
				<path style="fill:#FFFFFF;" d="M472.56,478.493h5.142v23.27h0.132c0.351-0.615,0.834-1.22,1.451-1.813
					c0.615-0.593,1.351-1.131,2.208-1.615c0.857-0.483,1.813-0.879,2.867-1.187c1.055-0.307,2.176-0.461,3.362-0.461
					c2.021,0,3.768,0.308,5.241,0.923c1.472,0.616,2.691,1.473,3.658,2.571c0.966,1.099,1.681,2.429,2.143,3.988
					c0.461,1.561,0.692,3.263,0.692,5.109v19.051h-5.142v-18.524c0-2.592-0.572-4.636-1.714-6.131
					c-1.144-1.493-2.923-2.241-5.34-2.241c-1.67,0-3.109,0.286-4.318,0.857c-1.209,0.571-2.198,1.384-2.967,2.439
					c-0.769,1.055-1.341,2.307-1.714,3.758c-0.374,1.45-0.56,3.055-0.56,4.812v15.03h-5.142V478.493z"/>
				<path style="fill:#FFFFFF;" d="M508.818,501.434c1.582-1.625,3.461-2.823,5.636-3.593c2.175-0.768,4.384-1.154,6.625-1.154
					c4.57,0,7.866,1.078,9.888,3.23c2.021,2.153,3.033,5.428,3.033,9.822v13.25c0,0.88,0.043,1.791,0.132,2.736
					c0.088,0.946,0.198,1.813,0.33,2.604h-4.944c-0.177-0.702-0.275-1.483-0.297-2.341c-0.022-0.857-0.033-1.615-0.033-2.274h-0.132
					c-1.011,1.582-2.363,2.879-4.054,3.889c-1.692,1.01-3.724,1.516-6.098,1.516c-1.582,0-3.065-0.198-4.449-0.593
					c-1.385-0.395-2.594-0.978-3.626-1.747c-1.033-0.768-1.858-1.724-2.472-2.867c-0.616-1.143-0.923-2.461-0.923-3.955
					c0-2.548,0.66-4.549,1.978-5.999s2.955-2.526,4.911-3.23c1.955-0.702,4.065-1.142,6.329-1.318
					c2.263-0.175,4.34-0.264,6.23-0.264h1.977v-0.923c0-2.242-0.671-3.933-2.011-5.076c-1.341-1.142-3.22-1.714-5.636-1.714
					c-1.67,0-3.307,0.275-4.911,0.824c-1.605,0.55-3.022,1.396-4.252,2.538L508.818,501.434z M523.716,513.498
					c-3.296,0-5.911,0.461-7.845,1.384c-1.935,0.923-2.901,2.439-2.901,4.549c0,1.934,0.648,3.308,1.945,4.12
					c1.296,0.814,2.911,1.22,4.845,1.22c1.493,0,2.802-0.253,3.922-0.758c1.121-0.505,2.054-1.175,2.802-2.011
					c0.747-0.834,1.318-1.813,1.714-2.933c0.395-1.121,0.615-2.318,0.659-3.593v-1.977H523.716z"/>
				<path style="fill:#FFFFFF;" d="M575.201,478.493h5.142v32.565l14.041-13.58h7.317l-14.898,14.041l16.414,16.81h-7.581
					l-15.294-16.217v16.217h-5.142V478.493z"/>
				<path style="fill:#FFFFFF;" d="M608.161,504.796c0-1.406-0.044-2.725-0.132-3.955c-0.089-1.23-0.132-2.35-0.132-3.362h4.879
					c0,0.836,0.022,1.67,0.065,2.505c0.043,0.836,0.066,1.693,0.066,2.571h0.132c0.351-0.747,0.845-1.472,1.483-2.176
					c0.636-0.703,1.394-1.329,2.274-1.879c0.879-0.549,1.867-0.989,2.967-1.318c1.098-0.33,2.284-0.495,3.56-0.495
					c2.021,0,3.768,0.308,5.241,0.923c1.472,0.616,2.691,1.473,3.658,2.571c0.966,1.099,1.681,2.429,2.143,3.988
					c0.461,1.561,0.692,3.263,0.692,5.109v19.051h-5.142v-18.524c0-2.592-0.572-4.636-1.714-6.131
					c-1.144-1.493-2.923-2.241-5.34-2.241c-1.67,0-3.109,0.286-4.318,0.857c-1.209,0.571-2.198,1.384-2.967,2.439
					c-0.769,1.055-1.341,2.307-1.714,3.758c-0.374,1.45-0.56,3.055-0.56,4.812v15.03h-5.142V504.796z"/>
				<path style="fill:#FFFFFF;" d="M644.089,485.415c0-1.01,0.362-1.889,1.088-2.637c0.726-0.747,1.615-1.12,2.67-1.12
					c1.055,0,1.945,0.374,2.67,1.12c0.725,0.748,1.088,1.627,1.088,2.637c0,1.099-0.352,2-1.055,2.703
					c-0.703,0.703-1.604,1.055-2.702,1.055c-1.099,0-2-0.351-2.703-1.055C644.44,487.415,644.089,486.514,644.089,485.415z
					 M645.275,497.479h5.142v30.851h-5.142V497.479z"/>
				<path style="fill:#FFFFFF;" d="M691.42,526.945c0,5.625-1.44,9.899-4.318,12.822c-2.879,2.922-7.044,4.383-12.492,4.383
					c-3.033,0-5.768-0.44-8.207-1.318c-2.439-0.88-4.758-2.396-6.955-4.549l3.692-4.219c1.625,1.757,3.351,3.087,5.174,3.988
					c1.824,0.9,3.923,1.352,6.296,1.352c2.284,0,4.186-0.341,5.702-1.022c1.516-0.682,2.713-1.605,3.592-2.768
					c0.879-1.165,1.494-2.495,1.846-3.989c0.351-1.494,0.527-3.055,0.527-4.68v-3.955h-0.132c-1.231,1.978-2.835,3.428-4.812,4.351
					c-1.977,0.923-3.999,1.384-6.065,1.384c-2.417,0-4.637-0.395-6.658-1.186c-2.022-0.791-3.758-1.889-5.208-3.296
					c-1.451-1.406-2.571-3.076-3.362-5.01c-0.791-1.934-1.187-4.043-1.187-6.329c0-2.505,0.396-4.768,1.187-6.79
					c0.791-2.021,1.9-3.724,3.329-5.109c1.428-1.385,3.153-2.449,5.175-3.197c2.021-0.747,4.262-1.121,6.724-1.121
					c1.055,0,2.11,0.122,3.164,0.362c1.055,0.242,2.077,0.616,3.065,1.121c0.989,0.506,1.879,1.143,2.67,1.912
					c0.791,0.769,1.451,1.659,1.978,2.67h0.132v-5.274h5.142V526.945z M664.392,512.904c0,1.582,0.285,3.044,0.857,4.384
					c0.571,1.341,1.351,2.505,2.34,3.493c0.989,0.989,2.143,1.77,3.461,2.341c1.318,0.572,2.725,0.857,4.219,0.857
					c1.758,0,3.318-0.307,4.68-0.923c1.362-0.615,2.515-1.439,3.461-2.472c0.944-1.032,1.658-2.219,2.142-3.56
					c0.483-1.34,0.725-2.757,0.725-4.252c0-1.67-0.264-3.198-0.791-4.582c-0.527-1.385-1.275-2.581-2.241-3.593
					c-0.967-1.01-2.132-1.79-3.494-2.341c-1.362-0.549-2.857-0.824-4.483-0.824c-1.626,0-3.109,0.296-4.449,0.89
					c-1.341,0.593-2.484,1.407-3.428,2.439c-0.945,1.033-1.681,2.241-2.208,3.626C664.656,509.773,664.392,511.279,664.392,512.904z
					"/>
				<path style="fill:#FFFFFF;" d="M700.912,478.493h5.142v23.27h0.132c0.351-0.615,0.834-1.22,1.451-1.813
					c0.615-0.593,1.351-1.131,2.208-1.615c0.857-0.483,1.813-0.879,2.867-1.187c1.055-0.307,2.176-0.461,3.362-0.461
					c2.021,0,3.768,0.308,5.241,0.923c1.472,0.616,2.691,1.473,3.658,2.571c0.966,1.099,1.681,2.429,2.143,3.988
					c0.461,1.561,0.692,3.263,0.692,5.109v19.051h-5.142v-18.524c0-2.592-0.572-4.636-1.714-6.131
					c-1.144-1.493-2.923-2.241-5.34-2.241c-1.67,0-3.109,0.286-4.318,0.857c-1.209,0.571-2.198,1.384-2.967,2.439
					c-0.769,1.055-1.341,2.307-1.714,3.758c-0.374,1.45-0.56,3.055-0.56,4.812v15.03h-5.142V478.493z"/>
				<path style="fill:#FFFFFF;" d="M754.441,501.829h-9.097v15.426c0,1.011,0.022,1.945,0.065,2.802
					c0.043,0.857,0.22,1.605,0.527,2.242c0.307,0.637,0.769,1.143,1.385,1.516c0.615,0.374,1.493,0.56,2.637,0.56
					c0.747,0,1.516-0.088,2.307-0.264c0.791-0.175,1.538-0.438,2.242-0.791l0.198,4.68c-0.88,0.396-1.858,0.681-2.934,0.857
					c-1.077,0.175-2.099,0.264-3.065,0.264c-1.846,0-3.319-0.242-4.417-0.725c-1.099-0.483-1.956-1.164-2.571-2.043
					c-0.616-0.879-1.021-1.966-1.219-3.263c-0.198-1.296-0.297-2.736-0.297-4.318v-16.942h-6.724v-4.351h6.724v-8.767h5.142v8.767
					h9.097V501.829z"/>
			</g>
			<path style="fill:#FFFFFF;" d="M564.358,525.176c-9.824,0-17.789-7.964-17.789-17.789c0-4.975,2.045-9.471,5.337-12.699
				c-6.827,2.486-11.702,9.033-11.702,16.719c0,9.824,7.964,17.789,17.789,17.789c4.849,0,9.243-1.943,12.452-5.09
				C568.546,524.798,566.496,525.176,564.358,525.176z"/>
			<path style="fill:#FFFFFF;" d="M563.743,496.727l4.545-1.536l0.608,1.856l-4.513,1.536l2.849,3.809l-1.568,1.216l-2.881-3.937
				l-2.785,3.937l-1.6-1.216l2.785-3.809l-4.513-1.536l0.608-1.856l4.545,1.536v-4.769h1.92V496.727z"/>
		</g>
	</g>
</g>
</svg>
