<?xml version="1.0" encoding="UTF-8" standalone="no"?>
<!-- Generator: Adobe Illustrator 19.2.0, SVG Export Plug-In . SVG Version: 6.00 Build 0)  -->

<svg
   xmlns:dc="http://purl.org/dc/elements/1.1/"
   xmlns:cc="http://creativecommons.org/ns#"
   xmlns:rdf="http://www.w3.org/1999/02/22-rdf-syntax-ns#"
   xmlns:svg="http://www.w3.org/2000/svg"
   xmlns="http://www.w3.org/2000/svg"
   xmlns:sodipodi="http://sodipodi.sourceforge.net/DTD/sodipodi-0.dtd"
   xmlns:inkscape="http://www.inkscape.org/namespaces/inkscape"
   version="1.1"
   id="Livello_1"
   x="0px"
   y="0px"
   viewBox="0 0 338.25 338.25"
   xml:space="preserve"
   inkscape:version="0.91 r13725"
   sodipodi:docname="hacknight-icona-torino.svg"
   width="338.25"
   height="338.25"><metadata
     id="metadata19"><rdf:RDF><cc:Work
         rdf:about=""><dc:format>image/svg+xml</dc:format><dc:type
           rdf:resource="http://purl.org/dc/dcmitype/StillImage" /><dc:title></dc:title></cc:Work></rdf:RDF></metadata><defs
     id="defs17" /><sodipodi:namedview
     pagecolor="#ffffff"
     bordercolor="#666666"
     borderopacity="1"
     objecttolerance="10"
     gridtolerance="10"
     guidetolerance="10"
     inkscape:pageopacity="0"
     inkscape:pageshadow="2"
     inkscape:window-width="1920"
     inkscape:window-height="1016"
     id="namedview15"
     showgrid="false"
     inkscape:zoom="0.30729167"
     inkscape:cx="175.63347"
     inkscape:cy="169.125"
     inkscape:window-x="0"
     inkscape:window-y="27"
     inkscape:window-maximized="1"
     inkscape:current-layer="Livello_1"
     fit-margin-top="0"
     fit-margin-left="0"
     fit-margin-right="0"
     fit-margin-bottom="0" /><g
     id="g3"
     transform="translate(-342.875,-214.875)"><circle
       style="fill:#ffffff"
       cx="512"
       cy="384"
       r="169.125"
       id="circle5" /><circle
       style="fill:#2c3e51"
       cx="512"
       cy="384"
       r="156.342"
       id="circle7" /><path
       style="fill:#ffffff"
       d="m 537.488,453.389 c -46.802,0 -84.742,-37.94 -84.742,-84.742 0,-23.7 9.74,-45.117 25.423,-60.496 -32.521,11.842 -55.746,43.031 -55.746,79.648 0,46.802 37.94,84.742 84.742,84.742 23.101,0 44.033,-9.255 59.319,-24.246 -9.047,3.294 -18.811,5.094 -28.996,5.094 z"
       id="path9"
       inkscape:connector-curvature="0" /><path
       style="fill:#ffffff"
       d="m 543.109,320.714 21.652,-7.318 2.897,8.843 -21.499,7.318 13.57,18.144 -7.471,5.794 -13.722,-18.755 -13.266,18.755 -7.623,-5.794 13.265,-18.144 -21.499,-7.318 2.897,-8.843 21.652,7.318 0,-22.718 9.148,0 0,22.718 z"
       id="path11"
       inkscape:connector-curvature="0" /><path
       style="fill:#ffffff"
       d="m 563.148,531.395 c -2.374,-6.967 -5.471,-13.58 -9.592,-19.708 -1.601,-2.38 -3.383,-4.609 -5.182,-6.828 -0.816,-1.005 -0.952,-2.143 -0.573,-3.17 0.288,-0.78 -0.199,-2.12 1.326,-2.337 0.422,-0.06 1.288,-2.345 -0.609,-2.437 -0.848,-0.041 -0.976,-0.726 -0.961,-1.427 0.038,-1.847 -0.138,-10.24 -0.123,-12.198 10e-4,-0.198 -0.002,-0.44 0.222,-0.512 1.21,-0.391 0.444,-0.87 0.068,-1.331 -0.251,-0.307 -3.021,-2.417 -3.451,-3.817 -0.388,-1.515 -0.794,-3.026 -1.154,-4.547 -0.118,-0.496 -0.173,-0.975 0.345,-1.411 0.542,-0.457 0.448,-1.231 -0.026,-1.59 -1.048,-0.794 -1.216,-1.832 -1.243,-3.007 -0.038,-1.65 -0.098,-3.257 0.971,-4.714 0.536,-0.731 0.129,-1.422 -0.798,-1.505 -0.984,-0.088 -1.679,-0.168 -1.035,-1.453 0.316,-0.63 -0.706,-1.153 -0.446,-1.899 0.051,-0.146 0.029,-0.318 0.041,-0.478 -0.084,-1.505 -0.616,-3.141 1.189,-4.098 0.126,-0.81 0.754,-1.789 -0.72,-2.049 -0.222,-0.039 -0.897,-21.492 -1.169,-27.815 -0.024,-0.565 -0.054,-1.136 0.356,-1.609 0.131,-0.15 0.316,-0.387 0.087,-0.501 -0.908,-0.45 -0.41,-1.281 -0.589,-1.926 -0.376,-1.361 -0.742,-14.192 -1.053,-15.553 -0.085,1.597 -0.851,16.52 -1.582,17.254 -0.868,0.872 0.339,1.514 0.21,2.415 -0.352,2.465 -1.046,27.114 -1.661,27.556 -0.921,0.661 -0.615,1.356 -0.556,2.116 1.201,0.99 1.362,2.277 1.059,3.697 -0.142,0.823 0.427,1.776 -0.479,2.466 -0.246,0.188 0.049,0.335 0.152,0.462 0.755,0.935 0.28,1.184 -0.659,1.347 -1.711,0.297 -1.713,0.356 -0.792,1.903 0.979,1.644 0.594,5.656 -0.638,7.243 -0.411,0.529 -0.549,1.232 -0.013,1.756 0.398,0.389 0.401,0.735 0.256,1.181 -0.595,1.833 -1.189,3.667 -1.783,5.501 -0.569,1.389 -1.725,2.181 -2.949,2.905 -0.5,0.47 -0.665,0.829 -0.257,1.604 0.46,0.875 1.234,1.8 0.823,2.969 -0.06,1.326 -0.254,8.218 -0.249,10.079 0.002,0.671 -0.23,0.566 -1.081,0.713 -0.666,0.115 -1.421,0.859 -1.416,1.448 0.007,0.844 0.195,1.046 1.406,1.576 0.766,0.336 0.408,1.521 0.519,2.314 0.24,1.719 -0.413,3.134 -1.495,4.524 -4.105,5.277 -8.021,10.7 -11.231,16.581 -2.877,5.271 -4.485,10.983 -5.436,16.88 -0.175,1.082 -0.459,1.504 -1.635,1.477 -1.129,-0.026 -2.334,-0.445 -3.434,0.489 -0.482,0.409 -0.868,-0.242 -0.825,-0.786 0.038,-0.478 -0.284,-0.803 -0.284,-1.005 l 0,12.828 c 2.324,0.095 4.656,0.156 7.003,0.156 19.072,0 37.405,-3.16 54.509,-8.98 -0.082,-0.186 -0.079,-0.434 -0.112,-0.636 -0.658,-4.154 -1.901,-8.15 -3.251,-12.113 z"
       id="path13"
       inkscape:connector-curvature="0" /></g></svg>